<mxfile host="Electron" modified="2023-10-02T12:15:36.784Z" agent="Mozilla/5.0 (Windows NT 10.0; Win64; x64) AppleWebKit/537.36 (KHTML, like Gecko) draw.io/21.8.2 Chrome/114.0.5735.289 Electron/25.8.1 Safari/537.36" etag="aocZAtfjTQvKjZuaA8aE" version="21.8.2" type="device">
  <diagram name="Page-1" id="JfJg-FATiQY-UTIKfzeZ">
    <mxGraphModel dx="868" dy="1022" grid="1" gridSize="10" guides="1" tooltips="1" connect="1" arrows="1" fold="1" page="1" pageScale="1" pageWidth="850" pageHeight="1100" math="0" shadow="0">
      <root>
        <mxCell id="0" />
        <mxCell id="1" parent="0" />
        <mxCell id="_CuEJ7dtW7JaejTINGK2-51" style="edgeStyle=orthogonalEdgeStyle;rounded=0;orthogonalLoop=1;jettySize=auto;html=1;exitX=0.5;exitY=1;exitDx=0;exitDy=0;entryX=0.5;entryY=0;entryDx=0;entryDy=0;" edge="1" parent="1" source="_CuEJ7dtW7JaejTINGK2-1" target="_CuEJ7dtW7JaejTINGK2-5">
          <mxGeometry relative="1" as="geometry">
            <Array as="points">
              <mxPoint x="610" y="710" />
              <mxPoint x="560" y="710" />
            </Array>
          </mxGeometry>
        </mxCell>
        <mxCell id="_CuEJ7dtW7JaejTINGK2-96" value="utilizes" style="edgeLabel;html=1;align=center;verticalAlign=middle;resizable=0;points=[];" vertex="1" connectable="0" parent="_CuEJ7dtW7JaejTINGK2-51">
          <mxGeometry x="0.3607" y="-1" relative="1" as="geometry">
            <mxPoint as="offset" />
          </mxGeometry>
        </mxCell>
        <mxCell id="_CuEJ7dtW7JaejTINGK2-53" style="edgeStyle=orthogonalEdgeStyle;rounded=0;orthogonalLoop=1;jettySize=auto;html=1;exitX=0.5;exitY=1;exitDx=0;exitDy=0;entryX=0.5;entryY=0;entryDx=0;entryDy=0;" edge="1" parent="1" source="_CuEJ7dtW7JaejTINGK2-1" target="_CuEJ7dtW7JaejTINGK2-10">
          <mxGeometry relative="1" as="geometry">
            <Array as="points">
              <mxPoint x="610" y="710" />
              <mxPoint x="650" y="710" />
            </Array>
          </mxGeometry>
        </mxCell>
        <mxCell id="_CuEJ7dtW7JaejTINGK2-97" value="triggers" style="edgeLabel;html=1;align=center;verticalAlign=middle;resizable=0;points=[];" vertex="1" connectable="0" parent="_CuEJ7dtW7JaejTINGK2-53">
          <mxGeometry x="0.2493" y="-1" relative="1" as="geometry">
            <mxPoint as="offset" />
          </mxGeometry>
        </mxCell>
        <mxCell id="_CuEJ7dtW7JaejTINGK2-54" style="edgeStyle=orthogonalEdgeStyle;rounded=0;orthogonalLoop=1;jettySize=auto;html=1;exitX=0.5;exitY=1;exitDx=0;exitDy=0;entryX=0.5;entryY=0;entryDx=0;entryDy=0;" edge="1" parent="1" source="_CuEJ7dtW7JaejTINGK2-1" target="_CuEJ7dtW7JaejTINGK2-7">
          <mxGeometry relative="1" as="geometry">
            <Array as="points">
              <mxPoint x="610" y="710" />
              <mxPoint x="745" y="710" />
            </Array>
          </mxGeometry>
        </mxCell>
        <mxCell id="_CuEJ7dtW7JaejTINGK2-99" value="defines" style="edgeLabel;html=1;align=center;verticalAlign=middle;resizable=0;points=[];" vertex="1" connectable="0" parent="_CuEJ7dtW7JaejTINGK2-54">
          <mxGeometry x="0.6527" relative="1" as="geometry">
            <mxPoint as="offset" />
          </mxGeometry>
        </mxCell>
        <mxCell id="_CuEJ7dtW7JaejTINGK2-56" style="edgeStyle=orthogonalEdgeStyle;rounded=0;orthogonalLoop=1;jettySize=auto;html=1;exitX=0.5;exitY=1;exitDx=0;exitDy=0;entryX=0.75;entryY=0;entryDx=0;entryDy=0;" edge="1" parent="1" source="_CuEJ7dtW7JaejTINGK2-1" target="_CuEJ7dtW7JaejTINGK2-6">
          <mxGeometry relative="1" as="geometry">
            <Array as="points">
              <mxPoint x="610" y="710" />
              <mxPoint x="487" y="710" />
            </Array>
          </mxGeometry>
        </mxCell>
        <mxCell id="_CuEJ7dtW7JaejTINGK2-98" value="implements" style="edgeLabel;html=1;align=center;verticalAlign=middle;resizable=0;points=[];" vertex="1" connectable="0" parent="_CuEJ7dtW7JaejTINGK2-56">
          <mxGeometry x="0.6096" y="1" relative="1" as="geometry">
            <mxPoint as="offset" />
          </mxGeometry>
        </mxCell>
        <mxCell id="_CuEJ7dtW7JaejTINGK2-1" value="&lt;b&gt;Abstraction&amp;nbsp;&lt;/b&gt;" style="rounded=1;whiteSpace=wrap;html=1;" vertex="1" parent="1">
          <mxGeometry x="565" y="640" width="90" height="40" as="geometry" />
        </mxCell>
        <mxCell id="_CuEJ7dtW7JaejTINGK2-80" style="edgeStyle=orthogonalEdgeStyle;rounded=0;orthogonalLoop=1;jettySize=auto;html=1;entryX=0.5;entryY=0;entryDx=0;entryDy=0;" edge="1" parent="1" source="_CuEJ7dtW7JaejTINGK2-2" target="_CuEJ7dtW7JaejTINGK2-37">
          <mxGeometry relative="1" as="geometry">
            <Array as="points">
              <mxPoint x="525" y="290" />
              <mxPoint x="425" y="290" />
            </Array>
          </mxGeometry>
        </mxCell>
        <mxCell id="_CuEJ7dtW7JaejTINGK2-102" value="restrict &lt;br&gt;access" style="edgeLabel;html=1;align=center;verticalAlign=middle;resizable=0;points=[];" vertex="1" connectable="0" parent="_CuEJ7dtW7JaejTINGK2-80">
          <mxGeometry x="0.7483" y="-3" relative="1" as="geometry">
            <mxPoint as="offset" />
          </mxGeometry>
        </mxCell>
        <mxCell id="_CuEJ7dtW7JaejTINGK2-81" style="edgeStyle=orthogonalEdgeStyle;rounded=0;orthogonalLoop=1;jettySize=auto;html=1;entryX=0.5;entryY=0;entryDx=0;entryDy=0;" edge="1" parent="1" source="_CuEJ7dtW7JaejTINGK2-2" target="_CuEJ7dtW7JaejTINGK2-9">
          <mxGeometry relative="1" as="geometry">
            <Array as="points">
              <mxPoint x="525" y="290" />
              <mxPoint x="335" y="290" />
            </Array>
          </mxGeometry>
        </mxCell>
        <mxCell id="_CuEJ7dtW7JaejTINGK2-101" value="holds" style="edgeLabel;html=1;align=center;verticalAlign=middle;resizable=0;points=[];" vertex="1" connectable="0" parent="_CuEJ7dtW7JaejTINGK2-81">
          <mxGeometry x="0.8134" y="2" relative="1" as="geometry">
            <mxPoint as="offset" />
          </mxGeometry>
        </mxCell>
        <mxCell id="_CuEJ7dtW7JaejTINGK2-82" style="edgeStyle=orthogonalEdgeStyle;rounded=0;orthogonalLoop=1;jettySize=auto;html=1;entryX=0.5;entryY=0;entryDx=0;entryDy=0;" edge="1" parent="1" source="_CuEJ7dtW7JaejTINGK2-2" target="_CuEJ7dtW7JaejTINGK2-24">
          <mxGeometry relative="1" as="geometry">
            <Array as="points">
              <mxPoint x="525" y="290" />
              <mxPoint x="245" y="290" />
            </Array>
          </mxGeometry>
        </mxCell>
        <mxCell id="_CuEJ7dtW7JaejTINGK2-100" value="creates" style="edgeLabel;html=1;align=center;verticalAlign=middle;resizable=0;points=[];" vertex="1" connectable="0" parent="_CuEJ7dtW7JaejTINGK2-82">
          <mxGeometry x="0.8226" relative="1" as="geometry">
            <mxPoint as="offset" />
          </mxGeometry>
        </mxCell>
        <mxCell id="_CuEJ7dtW7JaejTINGK2-83" style="edgeStyle=orthogonalEdgeStyle;rounded=0;orthogonalLoop=1;jettySize=auto;html=1;entryX=0.5;entryY=0;entryDx=0;entryDy=0;" edge="1" parent="1" source="_CuEJ7dtW7JaejTINGK2-2" target="_CuEJ7dtW7JaejTINGK2-39">
          <mxGeometry relative="1" as="geometry">
            <Array as="points">
              <mxPoint x="525" y="290" />
              <mxPoint x="605" y="290" />
            </Array>
          </mxGeometry>
        </mxCell>
        <mxCell id="_CuEJ7dtW7JaejTINGK2-105" value="limit&lt;br&gt;access" style="edgeLabel;html=1;align=center;verticalAlign=middle;resizable=0;points=[];" vertex="1" connectable="0" parent="_CuEJ7dtW7JaejTINGK2-83">
          <mxGeometry x="0.7539" y="2" relative="1" as="geometry">
            <mxPoint x="-8" y="1" as="offset" />
          </mxGeometry>
        </mxCell>
        <mxCell id="_CuEJ7dtW7JaejTINGK2-84" style="edgeStyle=orthogonalEdgeStyle;rounded=0;orthogonalLoop=1;jettySize=auto;html=1;entryX=0.5;entryY=0;entryDx=0;entryDy=0;" edge="1" parent="1" source="_CuEJ7dtW7JaejTINGK2-2" target="_CuEJ7dtW7JaejTINGK2-8">
          <mxGeometry relative="1" as="geometry">
            <Array as="points">
              <mxPoint x="525" y="290" />
              <mxPoint x="695" y="290" />
            </Array>
          </mxGeometry>
        </mxCell>
        <mxCell id="_CuEJ7dtW7JaejTINGK2-106" value="Instantiates" style="edgeLabel;html=1;align=center;verticalAlign=middle;resizable=0;points=[];" vertex="1" connectable="0" parent="_CuEJ7dtW7JaejTINGK2-84">
          <mxGeometry x="0.7952" y="-2" relative="1" as="geometry">
            <mxPoint as="offset" />
          </mxGeometry>
        </mxCell>
        <mxCell id="_CuEJ7dtW7JaejTINGK2-85" style="edgeStyle=orthogonalEdgeStyle;rounded=0;orthogonalLoop=1;jettySize=auto;html=1;entryX=0.5;entryY=0;entryDx=0;entryDy=0;" edge="1" parent="1" source="_CuEJ7dtW7JaejTINGK2-2" target="_CuEJ7dtW7JaejTINGK2-34">
          <mxGeometry relative="1" as="geometry">
            <Array as="points">
              <mxPoint x="525" y="290" />
              <mxPoint x="785" y="290" />
            </Array>
          </mxGeometry>
        </mxCell>
        <mxCell id="_CuEJ7dtW7JaejTINGK2-107" value="References" style="edgeLabel;html=1;align=center;verticalAlign=middle;resizable=0;points=[];" vertex="1" connectable="0" parent="_CuEJ7dtW7JaejTINGK2-85">
          <mxGeometry x="0.8094" y="-1" relative="1" as="geometry">
            <mxPoint as="offset" />
          </mxGeometry>
        </mxCell>
        <mxCell id="_CuEJ7dtW7JaejTINGK2-2" value="&lt;b&gt;Encapsulation&lt;/b&gt;" style="rounded=1;whiteSpace=wrap;html=1;direction=west;" vertex="1" parent="1">
          <mxGeometry x="480" y="410" width="90" height="40" as="geometry" />
        </mxCell>
        <mxCell id="_CuEJ7dtW7JaejTINGK2-77" style="edgeStyle=orthogonalEdgeStyle;rounded=0;orthogonalLoop=1;jettySize=auto;html=1;entryX=0.5;entryY=1;entryDx=0;entryDy=0;" edge="1" parent="1" source="_CuEJ7dtW7JaejTINGK2-3" target="_CuEJ7dtW7JaejTINGK2-11">
          <mxGeometry relative="1" as="geometry">
            <Array as="points">
              <mxPoint x="110" y="380" />
              <mxPoint x="55" y="380" />
            </Array>
          </mxGeometry>
        </mxCell>
        <mxCell id="_CuEJ7dtW7JaejTINGK2-108" value="Implements" style="edgeLabel;html=1;align=center;verticalAlign=middle;resizable=0;points=[];" vertex="1" connectable="0" parent="_CuEJ7dtW7JaejTINGK2-77">
          <mxGeometry x="0.6211" y="2" relative="1" as="geometry">
            <mxPoint as="offset" />
          </mxGeometry>
        </mxCell>
        <mxCell id="_CuEJ7dtW7JaejTINGK2-78" style="edgeStyle=orthogonalEdgeStyle;rounded=0;orthogonalLoop=1;jettySize=auto;html=1;entryX=0.5;entryY=1;entryDx=0;entryDy=0;" edge="1" parent="1" source="_CuEJ7dtW7JaejTINGK2-3" target="_CuEJ7dtW7JaejTINGK2-35">
          <mxGeometry relative="1" as="geometry">
            <Array as="points">
              <mxPoint x="110" y="380" />
              <mxPoint x="165" y="380" />
            </Array>
          </mxGeometry>
        </mxCell>
        <mxCell id="_CuEJ7dtW7JaejTINGK2-109" value="Extends" style="edgeLabel;html=1;align=center;verticalAlign=middle;resizable=0;points=[];" vertex="1" connectable="0" parent="_CuEJ7dtW7JaejTINGK2-78">
          <mxGeometry x="0.5458" y="-1" relative="1" as="geometry">
            <mxPoint as="offset" />
          </mxGeometry>
        </mxCell>
        <mxCell id="_CuEJ7dtW7JaejTINGK2-3" value="&lt;b&gt;Inheritance&lt;/b&gt;" style="rounded=1;whiteSpace=wrap;html=1;" vertex="1" parent="1">
          <mxGeometry x="65" y="400" width="90" height="40" as="geometry" />
        </mxCell>
        <mxCell id="_CuEJ7dtW7JaejTINGK2-47" style="edgeStyle=orthogonalEdgeStyle;rounded=0;orthogonalLoop=1;jettySize=auto;html=1;exitX=0.5;exitY=1;exitDx=0;exitDy=0;entryX=0.5;entryY=0;entryDx=0;entryDy=0;" edge="1" parent="1" source="_CuEJ7dtW7JaejTINGK2-4" target="_CuEJ7dtW7JaejTINGK2-41">
          <mxGeometry relative="1" as="geometry">
            <Array as="points">
              <mxPoint x="235" y="710" />
              <mxPoint x="100" y="710" />
            </Array>
          </mxGeometry>
        </mxCell>
        <mxCell id="_CuEJ7dtW7JaejTINGK2-112" value="Defines" style="edgeLabel;html=1;align=center;verticalAlign=middle;resizable=0;points=[];" vertex="1" connectable="0" parent="_CuEJ7dtW7JaejTINGK2-47">
          <mxGeometry x="0.7593" y="-1" relative="1" as="geometry">
            <mxPoint x="11" as="offset" />
          </mxGeometry>
        </mxCell>
        <mxCell id="_CuEJ7dtW7JaejTINGK2-48" style="edgeStyle=orthogonalEdgeStyle;rounded=0;orthogonalLoop=1;jettySize=auto;html=1;exitX=0.5;exitY=1;exitDx=0;exitDy=0;entryX=0.5;entryY=0;entryDx=0;entryDy=0;" edge="1" parent="1" source="_CuEJ7dtW7JaejTINGK2-4" target="_CuEJ7dtW7JaejTINGK2-36">
          <mxGeometry relative="1" as="geometry">
            <Array as="points">
              <mxPoint x="235" y="710" />
              <mxPoint x="185" y="710" />
            </Array>
          </mxGeometry>
        </mxCell>
        <mxCell id="_CuEJ7dtW7JaejTINGK2-49" style="edgeStyle=orthogonalEdgeStyle;rounded=0;orthogonalLoop=1;jettySize=auto;html=1;exitX=0.5;exitY=1;exitDx=0;exitDy=0;entryX=0.5;entryY=0;entryDx=0;entryDy=0;" edge="1" parent="1" source="_CuEJ7dtW7JaejTINGK2-4" target="_CuEJ7dtW7JaejTINGK2-40">
          <mxGeometry relative="1" as="geometry" />
        </mxCell>
        <mxCell id="_CuEJ7dtW7JaejTINGK2-50" style="edgeStyle=orthogonalEdgeStyle;rounded=0;orthogonalLoop=1;jettySize=auto;html=1;exitX=0.5;exitY=1;exitDx=0;exitDy=0;entryX=0.5;entryY=0;entryDx=0;entryDy=0;" edge="1" parent="1" source="_CuEJ7dtW7JaejTINGK2-4" target="_CuEJ7dtW7JaejTINGK2-42">
          <mxGeometry relative="1" as="geometry">
            <Array as="points">
              <mxPoint x="235" y="710" />
              <mxPoint x="370" y="710" />
            </Array>
          </mxGeometry>
        </mxCell>
        <mxCell id="_CuEJ7dtW7JaejTINGK2-111" value="Supports" style="edgeLabel;html=1;align=center;verticalAlign=middle;resizable=0;points=[];" vertex="1" connectable="0" parent="_CuEJ7dtW7JaejTINGK2-50">
          <mxGeometry x="0.6658" y="-1" relative="1" as="geometry">
            <mxPoint as="offset" />
          </mxGeometry>
        </mxCell>
        <mxCell id="_CuEJ7dtW7JaejTINGK2-55" style="edgeStyle=orthogonalEdgeStyle;rounded=0;orthogonalLoop=1;jettySize=auto;html=1;exitX=0.5;exitY=1;exitDx=0;exitDy=0;entryX=0.25;entryY=0;entryDx=0;entryDy=0;" edge="1" parent="1" source="_CuEJ7dtW7JaejTINGK2-4" target="_CuEJ7dtW7JaejTINGK2-6">
          <mxGeometry relative="1" as="geometry">
            <Array as="points">
              <mxPoint x="235" y="710" />
              <mxPoint x="453" y="710" />
            </Array>
          </mxGeometry>
        </mxCell>
        <mxCell id="_CuEJ7dtW7JaejTINGK2-110" value="Overloads" style="edgeLabel;html=1;align=center;verticalAlign=middle;resizable=0;points=[];" vertex="1" connectable="0" parent="_CuEJ7dtW7JaejTINGK2-55">
          <mxGeometry x="0.8322" y="-2" relative="1" as="geometry">
            <mxPoint as="offset" />
          </mxGeometry>
        </mxCell>
        <mxCell id="_CuEJ7dtW7JaejTINGK2-4" value="&lt;b&gt;Polymorphism&lt;/b&gt;" style="rounded=1;whiteSpace=wrap;html=1;" vertex="1" parent="1">
          <mxGeometry x="190" y="640" width="90" height="40" as="geometry" />
        </mxCell>
        <mxCell id="_CuEJ7dtW7JaejTINGK2-5" value="Class" style="rounded=1;whiteSpace=wrap;html=1;" vertex="1" parent="1">
          <mxGeometry x="525" y="800" width="70" height="30" as="geometry" />
        </mxCell>
        <mxCell id="_CuEJ7dtW7JaejTINGK2-6" value="Method" style="rounded=1;whiteSpace=wrap;html=1;" vertex="1" parent="1">
          <mxGeometry x="435" y="770" width="70" height="30" as="geometry" />
        </mxCell>
        <mxCell id="_CuEJ7dtW7JaejTINGK2-7" value="Value Type" style="rounded=1;whiteSpace=wrap;html=1;" vertex="1" parent="1">
          <mxGeometry x="710" y="770" width="70" height="30" as="geometry" />
        </mxCell>
        <mxCell id="_CuEJ7dtW7JaejTINGK2-8" value="New" style="rounded=1;whiteSpace=wrap;html=1;direction=west;" vertex="1" parent="1">
          <mxGeometry x="660" y="180" width="70" height="30" as="geometry" />
        </mxCell>
        <mxCell id="_CuEJ7dtW7JaejTINGK2-9" value="Fields" style="rounded=1;whiteSpace=wrap;html=1;direction=west;" vertex="1" parent="1">
          <mxGeometry x="300" y="180" width="70" height="30" as="geometry" />
        </mxCell>
        <mxCell id="_CuEJ7dtW7JaejTINGK2-10" value="Method Call" style="rounded=1;whiteSpace=wrap;html=1;" vertex="1" parent="1">
          <mxGeometry x="615" y="800" width="70" height="30" as="geometry" />
        </mxCell>
        <mxCell id="_CuEJ7dtW7JaejTINGK2-11" value="Interface" style="rounded=1;whiteSpace=wrap;html=1;" vertex="1" parent="1">
          <mxGeometry x="20" y="300" width="70" height="30" as="geometry" />
        </mxCell>
        <mxCell id="_CuEJ7dtW7JaejTINGK2-24" value="Object" style="rounded=1;whiteSpace=wrap;html=1;direction=west;" vertex="1" parent="1">
          <mxGeometry x="210" y="180" width="70" height="30" as="geometry" />
        </mxCell>
        <mxCell id="_CuEJ7dtW7JaejTINGK2-86" style="edgeStyle=orthogonalEdgeStyle;rounded=0;orthogonalLoop=1;jettySize=auto;html=1;entryX=0.25;entryY=0;entryDx=0;entryDy=0;" edge="1" parent="1" source="_CuEJ7dtW7JaejTINGK2-28" target="_CuEJ7dtW7JaejTINGK2-9">
          <mxGeometry relative="1" as="geometry">
            <Array as="points">
              <mxPoint x="390" y="310" />
              <mxPoint x="353" y="310" />
            </Array>
          </mxGeometry>
        </mxCell>
        <mxCell id="_CuEJ7dtW7JaejTINGK2-103" style="edgeStyle=orthogonalEdgeStyle;rounded=0;orthogonalLoop=1;jettySize=auto;html=1;entryX=1;entryY=0;entryDx=0;entryDy=0;entryPerimeter=0;" edge="1" parent="1" source="_CuEJ7dtW7JaejTINGK2-28" target="_CuEJ7dtW7JaejTINGK2-37">
          <mxGeometry relative="1" as="geometry">
            <mxPoint x="390" y="210" as="targetPoint" />
          </mxGeometry>
        </mxCell>
        <mxCell id="_CuEJ7dtW7JaejTINGK2-28" value="Roles" style="rounded=1;whiteSpace=wrap;html=1;direction=east;" vertex="1" parent="1">
          <mxGeometry x="345" y="330" width="90" height="40" as="geometry" />
        </mxCell>
        <mxCell id="_CuEJ7dtW7JaejTINGK2-29" value="Responsibilities" style="rounded=1;whiteSpace=wrap;html=1;direction=west;" vertex="1" parent="1">
          <mxGeometry x="545" y="350" width="90" height="40" as="geometry" />
        </mxCell>
        <mxCell id="_CuEJ7dtW7JaejTINGK2-89" style="edgeStyle=orthogonalEdgeStyle;rounded=0;orthogonalLoop=1;jettySize=auto;html=1;entryX=0.25;entryY=0;entryDx=0;entryDy=0;" edge="1" parent="1" source="_CuEJ7dtW7JaejTINGK2-30" target="_CuEJ7dtW7JaejTINGK2-39">
          <mxGeometry relative="1" as="geometry">
            <Array as="points">
              <mxPoint x="705" y="330" />
              <mxPoint x="623" y="330" />
            </Array>
          </mxGeometry>
        </mxCell>
        <mxCell id="_CuEJ7dtW7JaejTINGK2-116" value="Collaborates Through" style="edgeLabel;html=1;align=center;verticalAlign=middle;resizable=0;points=[];" vertex="1" connectable="0" parent="_CuEJ7dtW7JaejTINGK2-89">
          <mxGeometry x="-0.4134" y="-1" relative="1" as="geometry">
            <mxPoint y="-14" as="offset" />
          </mxGeometry>
        </mxCell>
        <mxCell id="_CuEJ7dtW7JaejTINGK2-30" value="Collaborations" style="rounded=1;whiteSpace=wrap;html=1;direction=west;" vertex="1" parent="1">
          <mxGeometry x="660" y="350" width="90" height="40" as="geometry" />
        </mxCell>
        <mxCell id="_CuEJ7dtW7JaejTINGK2-73" style="edgeStyle=orthogonalEdgeStyle;rounded=0;orthogonalLoop=1;jettySize=auto;html=1;entryX=0.75;entryY=0;entryDx=0;entryDy=0;" edge="1" parent="1" source="_CuEJ7dtW7JaejTINGK2-31" target="_CuEJ7dtW7JaejTINGK2-40">
          <mxGeometry relative="1" as="geometry">
            <Array as="points">
              <mxPoint x="298" y="700" />
            </Array>
          </mxGeometry>
        </mxCell>
        <mxCell id="_CuEJ7dtW7JaejTINGK2-115" value="Increases With" style="edgeLabel;html=1;align=center;verticalAlign=middle;resizable=0;points=[];" vertex="1" connectable="0" parent="_CuEJ7dtW7JaejTINGK2-73">
          <mxGeometry x="-0.6174" y="1" relative="1" as="geometry">
            <mxPoint y="1" as="offset" />
          </mxGeometry>
        </mxCell>
        <mxCell id="_CuEJ7dtW7JaejTINGK2-31" value="Coupling" style="rounded=1;whiteSpace=wrap;html=1;" vertex="1" parent="1">
          <mxGeometry x="315" y="620" width="90" height="40" as="geometry" />
        </mxCell>
        <mxCell id="_CuEJ7dtW7JaejTINGK2-32" value="Cohesion" style="rounded=1;whiteSpace=wrap;html=1;" vertex="1" parent="1">
          <mxGeometry x="30" y="610" width="90" height="40" as="geometry" />
        </mxCell>
        <mxCell id="_CuEJ7dtW7JaejTINGK2-34" value="Reference Type" style="rounded=1;whiteSpace=wrap;html=1;direction=west;" vertex="1" parent="1">
          <mxGeometry x="750" y="180" width="70" height="30" as="geometry" />
        </mxCell>
        <mxCell id="_CuEJ7dtW7JaejTINGK2-35" value="Abstract Class" style="rounded=1;whiteSpace=wrap;html=1;" vertex="1" parent="1">
          <mxGeometry x="130" y="300" width="70" height="30" as="geometry" />
        </mxCell>
        <mxCell id="_CuEJ7dtW7JaejTINGK2-36" value="Abstract Methods" style="rounded=1;whiteSpace=wrap;html=1;" vertex="1" parent="1">
          <mxGeometry x="150" y="810" width="70" height="30" as="geometry" />
        </mxCell>
        <mxCell id="_CuEJ7dtW7JaejTINGK2-37" value="Private" style="rounded=1;whiteSpace=wrap;html=1;direction=west;" vertex="1" parent="1">
          <mxGeometry x="390" y="180" width="70" height="30" as="geometry" />
        </mxCell>
        <mxCell id="_CuEJ7dtW7JaejTINGK2-38" value="Public" style="rounded=1;whiteSpace=wrap;html=1;direction=west;" vertex="1" parent="1">
          <mxGeometry x="480" y="180" width="70" height="30" as="geometry" />
        </mxCell>
        <mxCell id="_CuEJ7dtW7JaejTINGK2-39" value="Protected" style="rounded=1;whiteSpace=wrap;html=1;direction=west;" vertex="1" parent="1">
          <mxGeometry x="570" y="180" width="70" height="30" as="geometry" />
        </mxCell>
        <mxCell id="_CuEJ7dtW7JaejTINGK2-40" value="Overload" style="rounded=1;whiteSpace=wrap;html=1;" vertex="1" parent="1">
          <mxGeometry x="245" y="740" width="70" height="30" as="geometry" />
        </mxCell>
        <mxCell id="_CuEJ7dtW7JaejTINGK2-41" value="Override" style="rounded=1;whiteSpace=wrap;html=1;" vertex="1" parent="1">
          <mxGeometry x="65" y="750" width="70" height="30" as="geometry" />
        </mxCell>
        <mxCell id="_CuEJ7dtW7JaejTINGK2-76" style="edgeStyle=orthogonalEdgeStyle;rounded=0;orthogonalLoop=1;jettySize=auto;html=1;entryX=1;entryY=0.75;entryDx=0;entryDy=0;" edge="1" parent="1" source="_CuEJ7dtW7JaejTINGK2-42" target="_CuEJ7dtW7JaejTINGK2-36">
          <mxGeometry relative="1" as="geometry">
            <Array as="points">
              <mxPoint x="370" y="833" />
            </Array>
          </mxGeometry>
        </mxCell>
        <mxCell id="_CuEJ7dtW7JaejTINGK2-113" value="Allows" style="edgeLabel;html=1;align=center;verticalAlign=middle;resizable=0;points=[];" vertex="1" connectable="0" parent="_CuEJ7dtW7JaejTINGK2-76">
          <mxGeometry x="-0.0498" y="-3" relative="1" as="geometry">
            <mxPoint as="offset" />
          </mxGeometry>
        </mxCell>
        <mxCell id="_CuEJ7dtW7JaejTINGK2-42" value="Virtual" style="rounded=1;whiteSpace=wrap;html=1;" vertex="1" parent="1">
          <mxGeometry x="335" y="770" width="70" height="30" as="geometry" />
        </mxCell>
        <mxCell id="_CuEJ7dtW7JaejTINGK2-74" style="edgeStyle=orthogonalEdgeStyle;rounded=0;orthogonalLoop=1;jettySize=auto;html=1;entryX=0.143;entryY=0;entryDx=0;entryDy=0;entryPerimeter=0;" edge="1" parent="1" source="_CuEJ7dtW7JaejTINGK2-32" target="_CuEJ7dtW7JaejTINGK2-41">
          <mxGeometry relative="1" as="geometry" />
        </mxCell>
        <mxCell id="_CuEJ7dtW7JaejTINGK2-114" value="Improves With" style="edgeLabel;html=1;align=center;verticalAlign=middle;resizable=0;points=[];" vertex="1" connectable="0" parent="_CuEJ7dtW7JaejTINGK2-74">
          <mxGeometry x="-0.372" y="-1" relative="1" as="geometry">
            <mxPoint y="-1" as="offset" />
          </mxGeometry>
        </mxCell>
        <mxCell id="_CuEJ7dtW7JaejTINGK2-79" style="edgeStyle=orthogonalEdgeStyle;rounded=0;orthogonalLoop=1;jettySize=auto;html=1;entryX=0.353;entryY=0.044;entryDx=0;entryDy=0;entryPerimeter=0;" edge="1" parent="1" source="_CuEJ7dtW7JaejTINGK2-2" target="_CuEJ7dtW7JaejTINGK2-38">
          <mxGeometry relative="1" as="geometry" />
        </mxCell>
        <mxCell id="_CuEJ7dtW7JaejTINGK2-104" value="allow&amp;nbsp;&lt;br&gt;access" style="edgeLabel;html=1;align=center;verticalAlign=middle;resizable=0;points=[];" vertex="1" connectable="0" parent="_CuEJ7dtW7JaejTINGK2-79">
          <mxGeometry x="0.5926" relative="1" as="geometry">
            <mxPoint x="-10" as="offset" />
          </mxGeometry>
        </mxCell>
        <mxCell id="_CuEJ7dtW7JaejTINGK2-88" style="edgeStyle=orthogonalEdgeStyle;rounded=0;orthogonalLoop=1;jettySize=auto;html=1;entryX=0.097;entryY=0.017;entryDx=0;entryDy=0;entryPerimeter=0;" edge="1" parent="1" source="_CuEJ7dtW7JaejTINGK2-29" target="_CuEJ7dtW7JaejTINGK2-38">
          <mxGeometry relative="1" as="geometry">
            <Array as="points">
              <mxPoint x="590" y="330" />
              <mxPoint x="543" y="330" />
            </Array>
          </mxGeometry>
        </mxCell>
        <mxCell id="_CuEJ7dtW7JaejTINGK2-117" value="Obligates" style="edgeLabel;html=1;align=center;verticalAlign=middle;resizable=0;points=[];" vertex="1" connectable="0" parent="_CuEJ7dtW7JaejTINGK2-88">
          <mxGeometry x="-0.5337" y="-3" relative="1" as="geometry">
            <mxPoint x="-6" y="-17" as="offset" />
          </mxGeometry>
        </mxCell>
        <mxCell id="_CuEJ7dtW7JaejTINGK2-91" style="edgeStyle=orthogonalEdgeStyle;rounded=0;orthogonalLoop=1;jettySize=auto;html=1;entryX=0.5;entryY=1;entryDx=0;entryDy=0;" edge="1" parent="1" source="_CuEJ7dtW7JaejTINGK2-90" target="_CuEJ7dtW7JaejTINGK2-3">
          <mxGeometry relative="1" as="geometry">
            <Array as="points">
              <mxPoint x="370" y="490" />
              <mxPoint x="110" y="490" />
            </Array>
          </mxGeometry>
        </mxCell>
        <mxCell id="_CuEJ7dtW7JaejTINGK2-92" style="edgeStyle=orthogonalEdgeStyle;rounded=0;orthogonalLoop=1;jettySize=auto;html=1;entryX=0.5;entryY=0;entryDx=0;entryDy=0;" edge="1" parent="1" source="_CuEJ7dtW7JaejTINGK2-90" target="_CuEJ7dtW7JaejTINGK2-2">
          <mxGeometry relative="1" as="geometry">
            <Array as="points">
              <mxPoint x="370" y="490" />
              <mxPoint x="525" y="490" />
            </Array>
          </mxGeometry>
        </mxCell>
        <mxCell id="_CuEJ7dtW7JaejTINGK2-93" style="edgeStyle=orthogonalEdgeStyle;rounded=0;orthogonalLoop=1;jettySize=auto;html=1;entryX=0.5;entryY=0;entryDx=0;entryDy=0;" edge="1" parent="1" source="_CuEJ7dtW7JaejTINGK2-90" target="_CuEJ7dtW7JaejTINGK2-4">
          <mxGeometry relative="1" as="geometry">
            <Array as="points">
              <mxPoint x="370" y="610" />
              <mxPoint x="235" y="610" />
            </Array>
          </mxGeometry>
        </mxCell>
        <mxCell id="_CuEJ7dtW7JaejTINGK2-94" style="edgeStyle=orthogonalEdgeStyle;rounded=0;orthogonalLoop=1;jettySize=auto;html=1;exitX=0.5;exitY=1;exitDx=0;exitDy=0;entryX=0.5;entryY=0;entryDx=0;entryDy=0;" edge="1" parent="1" source="_CuEJ7dtW7JaejTINGK2-90" target="_CuEJ7dtW7JaejTINGK2-1">
          <mxGeometry relative="1" as="geometry">
            <Array as="points">
              <mxPoint x="370" y="610" />
              <mxPoint x="610" y="610" />
            </Array>
          </mxGeometry>
        </mxCell>
        <mxCell id="_CuEJ7dtW7JaejTINGK2-90" value="&lt;font style=&quot;font-size: 14px;&quot;&gt;&lt;b&gt;OOP PRINCIPLE&lt;/b&gt;&lt;/font&gt;" style="rounded=1;whiteSpace=wrap;html=1;" vertex="1" parent="1">
          <mxGeometry x="295" y="520" width="150" height="60" as="geometry" />
        </mxCell>
        <mxCell id="_CuEJ7dtW7JaejTINGK2-95" value="Made by Hai Nam Ngo" style="text;html=1;align=center;verticalAlign=middle;resizable=0;points=[];autosize=1;strokeColor=none;fillColor=none;" vertex="1" parent="1">
          <mxGeometry x="300" y="550" width="140" height="30" as="geometry" />
        </mxCell>
      </root>
    </mxGraphModel>
  </diagram>
</mxfile>
